<svg width="64" height="64" viewBox="0 0 64 64" fill="none" xmlns="http://www.w3.org/2000/svg">
<rect x="1" y="1" width="62" height="62" rx="31" fill="#465AFF" fill-opacity="0.1" stroke="#465AFF" stroke-width="2"/>
<path d="M48.2904 23.749C48.0969 23.0231 47.7174 22.361 47.1899 21.8292C46.6625 21.2973 46.0056 20.9143 45.285 20.7185C42.6326 20 32 20 32 20C32 20 21.3674 20 18.715 20.7146C17.9941 20.9099 17.3368 21.2927 16.8093 21.8246C16.2818 22.3566 15.9025 23.0189 15.7096 23.7452C15 26.4204 15 32 15 32C15 32 15 37.5796 15.7096 40.251C16.1004 41.7261 17.254 42.8879 18.715 43.2815C21.3674 44 32 44 32 44C32 44 42.6326 44 45.285 43.2815C46.7498 42.8879 47.8996 41.7261 48.2904 40.251C49 37.5796 49 32 49 32C49 32 49 26.4204 48.2904 23.749ZM28.6228 37.121V26.879L37.4263 31.9618L28.6228 37.121Z" fill="#465AFF"/>
</svg>
