<svg width="64" height="64" viewBox="0 0 64 64" fill="none" xmlns="http://www.w3.org/2000/svg">
<rect x="1" y="1" width="62" height="62" rx="31" fill="#465AFF" fill-opacity="0.1" stroke="#465AFF" stroke-width="2"/>
<path d="M44.88 18H19.12C18.5005 18 18 18.5005 18 19.12V44.88C18 45.4995 18.5005 46 19.12 46H44.88C45.4995 46 46 45.4995 46 44.88V19.12C46 18.5005 45.4995 18 44.88 18ZM26.3055 41.8595H22.151V28.4965H26.3055V41.8595ZM24.23 26.6695C23.7537 26.6695 23.2882 26.5283 22.8922 26.2637C22.4962 25.9991 22.1876 25.623 22.0053 25.183C21.823 24.743 21.7754 24.2588 21.8683 23.7917C21.9612 23.3246 22.1905 22.8956 22.5273 22.5588C22.8641 22.222 23.2931 21.9927 23.7602 21.8998C24.2273 21.8069 24.7115 21.8545 25.1515 22.0368C25.5915 22.2191 25.9676 22.5277 26.2322 22.9237C26.4968 23.3197 26.638 23.7852 26.638 24.2615C26.6345 25.5915 25.5565 26.6695 24.23 26.6695ZM41.8595 41.8595H37.7085V35.36C37.7085 33.8095 37.6805 31.818 35.549 31.818C33.3895 31.818 33.057 33.505 33.057 35.248V41.8595H28.9095V28.4965H32.8925V30.3235H32.9485C33.5015 29.2735 34.856 28.164 36.879 28.164C41.086 28.164 41.8595 30.9325 41.8595 34.5305V41.8595Z" fill="#465AFF"/>
</svg>
