<svg width="126" height="36" viewBox="0 0 126 36" fill="none" xmlns="http://www.w3.org/2000/svg">
<g clip-path="url(#clip0_26_7212)">
<path d="M16.0928 34.0439H14.6287L14.0465 32.5353H11.3804L10.8285 34.0439H9.39966L11.9978 27.3885H13.4241L16.0928 34.0439ZM13.6081 31.4114L12.6908 28.9423L11.7886 31.4114H13.6081Z" fill="white"/>
<path d="M19.0461 27.3885H21.5082C21.932 27.3754 22.3557 27.4185 22.7682 27.5167C23.1529 27.6266 23.5011 27.8376 23.7762 28.1277C24.0645 28.4369 24.282 28.805 24.4137 29.2063C24.5698 29.716 24.643 30.2474 24.6305 30.7803C24.6406 31.2601 24.5716 31.7383 24.4263 32.1958C24.2851 32.6388 24.0407 33.042 23.7132 33.3725C23.4423 33.6195 23.1181 33.801 22.7657 33.9031C22.3774 34.008 21.9758 34.0554 21.5737 34.0439H19.0461V27.3885ZM20.3943 28.5149V32.9225H21.4023C21.6752 32.9319 21.9482 32.9109 22.2163 32.8596C22.4174 32.8125 22.6042 32.7176 22.7606 32.583C22.932 32.4025 23.0536 32.1808 23.1134 31.9394C23.2163 31.5414 23.2622 31.1308 23.2495 30.7199C23.2638 30.3206 23.2179 29.9214 23.1134 29.5357C23.0405 29.2931 22.909 29.072 22.7304 28.892C22.556 28.7319 22.3405 28.6231 22.1079 28.5777C21.7419 28.5234 21.3716 28.5023 21.0017 28.5149H20.3943Z" fill="white"/>
<path d="M28.5693 32.5101L29.8444 32.7239C29.7071 33.1524 29.4349 33.5254 29.0683 33.7874C28.6749 34.0429 28.2118 34.1702 27.7427 34.152C26.9027 34.152 26.2803 33.8788 25.8754 33.3323C25.5428 32.8433 25.3759 32.2609 25.3991 31.6704C25.3588 30.9871 25.5835 30.3146 26.0266 29.7922C26.2265 29.5714 26.4719 29.3965 26.7459 29.2793C27.02 29.1621 27.3162 29.1055 27.6142 29.1133C27.9329 29.0985 28.2509 29.1547 28.5451 29.2778C28.8393 29.4009 29.1024 29.5877 29.3152 29.8249C29.7319 30.2975 29.9309 31.0233 29.9125 32.0023H26.7121C26.6999 32.3249 26.8106 32.6403 27.022 32.8848C27.1148 32.9869 27.2286 33.0678 27.3556 33.1221C27.4825 33.1763 27.6198 33.2026 27.7579 33.1991C27.9399 33.2057 28.1185 33.1478 28.2619 33.0356C28.4176 32.8974 28.5253 32.7134 28.5693 32.5101ZM28.6424 31.2203C28.6569 30.9134 28.5542 30.6124 28.3551 30.378C28.2714 30.2858 28.169 30.2124 28.0548 30.1625C27.9406 30.1127 27.817 30.0876 27.6923 30.0889C27.5616 30.0861 27.4318 30.1119 27.3121 30.1645C27.1924 30.217 27.0857 30.295 26.9993 30.3931C26.8087 30.6252 26.7132 30.9208 26.7322 31.2203H28.6424Z" fill="white"/>
<path d="M30.9531 34.0439V27.3885H32.2333V34.0439H30.9531Z" fill="white"/>
<path d="M35.7588 29.2239V30.2296H34.8843V32.1833C34.8771 32.4124 34.8855 32.6417 34.9095 32.8697C34.9267 32.9352 34.967 32.9923 35.0229 33.0306C35.0863 33.0749 35.1623 33.0978 35.2396 33.096C35.413 33.081 35.583 33.0394 35.7436 32.9728L35.8545 33.9634C35.5346 34.0932 35.1918 34.1573 34.8465 34.152C34.6328 34.1552 34.4205 34.1167 34.2216 34.0388C34.061 33.9776 33.9205 33.8732 33.8158 33.7371C33.718 33.5854 33.6559 33.4134 33.6344 33.2342C33.6003 32.9363 33.5869 32.6364 33.5941 32.3366V30.2347H33.012V29.2289H33.5991V28.271L34.8818 27.5167V29.2214L35.7588 29.2239Z" fill="white"/>
<path d="M37.601 30.6948L36.4418 30.4836C36.5379 30.0711 36.776 29.7054 37.1146 29.4502C37.5426 29.1975 38.0372 29.08 38.5334 29.1133C38.9681 29.0892 39.403 29.1587 39.8085 29.3169C40.0532 29.4185 40.2595 29.5945 40.3982 29.8198C40.5392 30.1839 40.5977 30.5745 40.5696 30.9638L40.5544 32.4523C40.5464 32.7652 40.5666 33.0783 40.6149 33.3876C40.6645 33.6127 40.7424 33.8307 40.8468 34.0363H39.5868C39.5393 33.9127 39.4981 33.7869 39.4633 33.6592C39.4511 33.6089 39.436 33.5593 39.4179 33.5108C39.2158 33.711 38.9783 33.8721 38.7174 33.986C38.4654 34.0922 38.1945 34.1461 37.921 34.1444C37.4911 34.1689 37.0687 34.0245 36.7442 33.7421C36.6039 33.6118 36.493 33.4531 36.4191 33.2767C36.3453 33.1002 36.31 32.91 36.3158 32.7188C36.3111 32.4625 36.3783 32.2099 36.5098 31.9897C36.64 31.7722 36.8309 31.5974 37.0592 31.4868C37.3823 31.3487 37.7207 31.2491 38.0672 31.1901C38.49 31.1244 38.9059 31.02 39.3096 30.8783V30.7501C39.3188 30.6546 39.3074 30.5583 39.2761 30.4677C39.2448 30.377 39.1943 30.2941 39.1281 30.2246C38.9221 30.0988 38.6804 30.044 38.4402 30.0687C38.2531 30.0581 38.0674 30.1055 37.9084 30.2045C37.7566 30.3314 37.649 30.503 37.601 30.6948ZM39.3121 31.7282C39.0561 31.8071 38.7962 31.8726 38.5334 31.9243C38.2915 31.9618 38.0569 32.0364 37.8379 32.1455C37.7613 32.1933 37.6981 32.2597 37.654 32.3383C37.61 32.417 37.5865 32.5055 37.5859 32.5956C37.585 32.6823 37.6023 32.7682 37.6365 32.8479C37.6708 32.9275 37.7214 32.9992 37.785 33.0582C37.8517 33.1226 37.9307 33.1731 38.0172 33.2068C38.1037 33.2405 38.1961 33.2566 38.289 33.2544C38.5269 33.2515 38.7575 33.1721 38.9467 33.0281C39.0931 32.9256 39.2006 32.7767 39.2516 32.6057C39.2952 32.4008 39.3121 32.1913 39.302 31.9821L39.3121 31.7282Z" fill="white"/>
<path d="M47.5298 31.5974V30.4761H50.4329V33.1262C50.0753 33.4449 49.6583 33.6901 49.2056 33.8478C48.6878 34.0508 48.1366 34.1557 47.5802 34.157C46.9443 34.1721 46.3154 34.0213 45.7557 33.7195C45.2423 33.4347 44.8329 32.9945 44.5865 32.4624C44.325 31.9126 44.1915 31.3109 44.1959 30.7023C44.1827 30.0595 44.3327 29.4238 44.6318 28.8543C44.9181 28.3186 45.3647 27.8853 45.9095 27.6148C46.4077 27.3782 46.9556 27.2644 47.5071 27.2829C48.3362 27.2829 48.9813 27.4564 49.4475 27.8008C49.9157 28.1524 50.2363 28.6649 50.3472 29.239L49.0091 29.4904C48.9259 29.1799 48.7381 28.9073 48.4773 28.7186C48.1933 28.5215 47.8528 28.4218 47.5071 28.4344C47.2468 28.422 46.9868 28.4654 46.7447 28.5617C46.5026 28.658 46.2839 28.8049 46.1035 28.9926C45.7557 29.3647 45.5819 29.917 45.5819 30.6495C45.5819 31.439 45.7583 32.0324 46.1111 32.4247C46.2835 32.6193 46.497 32.7735 46.7361 32.876C46.9753 32.9786 47.2343 33.0271 47.4945 33.018C47.7849 33.0177 48.0724 32.9614 48.3413 32.8521C48.603 32.7549 48.8492 32.6202 49.0721 32.4523V31.6075L47.5298 31.5974Z" fill="white"/>
<path d="M52.8897 34.0439H51.6121V29.2239H52.799V29.9204C52.9349 29.672 53.1211 29.4545 53.3458 29.2817C53.5115 29.1771 53.7042 29.1229 53.9002 29.1258C54.1986 29.1307 54.4899 29.2177 54.7419 29.3773L54.3463 30.4886C54.1696 30.363 53.9606 30.2906 53.744 30.2799C53.5801 30.2753 53.4197 30.3277 53.2904 30.4283C53.1404 30.5722 53.0376 30.758 52.9955 30.9613C52.9031 31.495 52.8676 32.0369 52.8897 32.578V34.0439Z" fill="white"/>
<path d="M54.9964 31.5647C54.9974 31.1352 55.1056 30.7126 55.3114 30.3352C55.5057 29.9466 55.8143 29.6264 56.1959 29.4175C56.5906 29.2055 57.0329 29.0974 57.4811 29.1032C57.8136 29.0922 58.1447 29.1497 58.4538 29.2722C58.763 29.3946 59.0435 29.5793 59.2779 29.8148C59.51 30.0514 59.6917 30.3324 59.8121 30.6409C59.9325 30.9495 59.9891 31.2791 59.9785 31.61C59.9889 31.9442 59.9316 32.277 59.8099 32.5885C59.6882 32.9001 59.5047 33.1838 59.2703 33.4228C59.0395 33.6592 58.7619 33.8452 58.4552 33.969C58.1485 34.0928 57.8194 34.1517 57.4887 34.1419C57.051 34.1421 56.6194 34.0396 56.2287 33.8427C55.8388 33.6536 55.5187 33.3465 55.3139 32.9652C55.0925 32.5322 54.9833 32.0507 54.9964 31.5647ZM56.3068 31.6326C56.28 32.0283 56.4012 32.4198 56.647 32.7314C56.7518 32.8514 56.8811 32.9476 57.0263 33.0135C57.1715 33.0794 57.3292 33.1135 57.4887 33.1135C57.6482 33.1135 57.8059 33.0794 57.9511 33.0135C58.0962 32.9476 58.2256 32.8514 58.3304 32.7314C58.5749 32.4163 58.6951 32.0227 58.6681 31.6251C58.6937 31.2323 58.5735 30.8439 58.3304 30.5339C58.2251 30.4146 58.0956 30.3191 57.9505 30.2536C57.8054 30.1882 57.648 30.1544 57.4887 30.1544C57.3294 30.1544 57.172 30.1882 57.0269 30.2536C56.8817 30.3191 56.7523 30.4146 56.647 30.5339C56.4012 30.8455 56.28 31.237 56.3068 31.6326Z" fill="white"/>
<path d="M64.1643 34.0439V33.3222C63.9874 33.5792 63.7493 33.7883 63.4713 33.9307C63.1914 34.0769 62.88 34.1528 62.5641 34.152C62.259 34.1574 61.9577 34.0838 61.6897 33.9383C61.4415 33.8066 61.2446 33.596 61.1302 33.3398C60.9998 33.0001 60.9406 32.6373 60.9564 32.2738V29.2239H62.2441V31.429C62.2241 31.8493 62.2477 32.2706 62.3146 32.6861C62.3554 32.8317 62.4442 32.9592 62.5666 33.0482C62.7053 33.142 62.8705 33.1888 63.0379 33.1814C63.2474 33.1843 63.4527 33.1219 63.625 33.0029C63.788 32.8961 63.9125 32.7402 63.9804 32.5579C64.0668 32.1295 64.099 31.6919 64.0761 31.2555V29.2239H65.3538V34.0439H64.1643Z" fill="white"/>
<path d="M66.6389 29.2239H67.8309V29.9204C67.9901 29.6766 68.2052 29.474 68.4584 29.3295C68.7262 29.1777 69.0298 29.0996 69.3378 29.1032C69.61 29.1011 69.8792 29.159 70.1262 29.2729C70.3732 29.3868 70.592 29.5538 70.7667 29.762C71.1839 30.2789 71.3932 30.9323 71.3538 31.5949C71.3538 32.402 71.1548 33.0281 70.7616 33.4731C70.5876 33.684 70.3685 33.8535 70.1205 33.9692C69.8724 34.0849 69.6016 34.1439 69.3278 34.1419C69.0768 34.1454 68.8285 34.0912 68.602 33.9835C68.3425 33.8442 68.1103 33.6594 67.9166 33.4379V35.8667H66.6389V29.2239ZM67.8989 31.5522C67.8654 31.977 67.9793 32.4004 68.2215 32.7515C68.3137 32.873 68.4329 32.9715 68.5698 33.0391C68.7067 33.1067 68.8575 33.1417 69.0102 33.1412C69.1531 33.1434 69.2944 33.1122 69.423 33.0502C69.5517 32.9882 69.664 32.8971 69.7511 32.7842C69.9544 32.5512 70.056 32.1615 70.056 31.615C70.0872 31.2157 69.9795 30.818 69.7511 30.4886C69.6623 30.3731 69.5478 30.2797 69.4165 30.216C69.2853 30.1523 69.141 30.1199 68.9951 30.1215C68.8466 30.1192 68.6994 30.1503 68.5646 30.2125C68.4298 30.2748 68.3108 30.3666 68.2164 30.4811C67.988 30.7897 67.8772 31.1694 67.904 31.5522H67.8989Z" fill="white"/>
<path d="M79.2338 31.5974L80.5391 32.0098C80.3946 32.647 80.0396 33.2173 79.5311 33.629C78.9293 34.03 78.2073 34.2114 77.4869 34.1427C76.7665 34.074 76.092 33.7593 75.5773 33.2519C75.0077 32.6484 74.7221 31.8229 74.7205 30.7753C74.7205 29.6664 75.0077 28.8091 75.5823 28.1931C75.8724 27.887 76.2251 27.6466 76.6163 27.4883C77.0076 27.33 77.4284 27.2573 77.8503 27.2753C78.5826 27.2441 79.2975 27.5036 79.8386 27.9969C80.1734 28.3367 80.4095 28.7608 80.5215 29.2239L79.1884 29.5407C79.1266 29.2176 78.9507 28.9273 78.6927 28.7225C78.4347 28.5177 78.1117 28.4119 77.7823 28.4244C77.5544 28.4165 77.3277 28.4601 77.1191 28.5519C76.9105 28.6438 76.7254 28.7816 76.5777 28.9549C76.2703 29.3086 76.1165 29.8818 76.1165 30.6747C76.1165 31.5128 76.2686 32.112 76.5727 32.4724C76.7155 32.6459 76.8963 32.7844 77.1012 32.8772C77.3061 32.9701 77.5296 33.0148 77.7545 33.008C78.0945 33.0143 78.4246 32.8932 78.6794 32.6685C78.9711 32.3775 79.1648 32.0032 79.2338 31.5974Z" fill="white"/>
<path d="M81.396 31.5647C81.3972 31.1355 81.5045 30.7132 81.7084 30.3352C81.9065 29.9501 82.2166 29.6338 82.598 29.4276C82.9928 29.2159 83.435 29.1077 83.8832 29.1133C84.216 29.1022 84.5475 29.1597 84.8571 29.2821C85.1667 29.4045 85.4476 29.5893 85.6825 29.8248C85.9146 30.0614 86.0963 30.3425 86.2167 30.651C86.3371 30.9595 86.3937 31.2891 86.3831 31.6201C86.3952 31.9551 86.3391 32.2892 86.2183 32.6021C86.0975 32.9149 85.9143 33.2001 85.68 33.4404C85.4489 33.6766 85.1713 33.8624 84.8646 33.9862C84.558 34.1099 84.229 34.169 83.8983 34.1595C83.4605 34.1605 83.0288 34.0579 82.6383 33.8603C82.2472 33.6721 81.926 33.3648 81.7211 32.9828C81.4952 32.5448 81.3834 32.0571 81.396 31.5647ZM82.7064 31.6326C82.6795 32.0283 82.8007 32.4198 83.0466 32.7314C83.1511 32.8513 83.2802 32.9475 83.4252 33.0134C83.5702 33.0793 83.7277 33.1134 83.887 33.1134C84.0463 33.1134 84.2038 33.0793 84.3487 33.0134C84.4937 32.9475 84.6229 32.8513 84.7274 32.7314C84.9739 32.4172 85.0951 32.0231 85.0676 31.6251C85.0938 31.2318 84.9725 30.8429 84.7274 30.5339C84.6224 30.4147 84.4931 30.3192 84.3482 30.2537C84.2033 30.1883 84.0461 30.1545 83.887 30.1545C83.7279 30.1545 83.5707 30.1883 83.4258 30.2537C83.2809 30.3192 83.1516 30.4147 83.0466 30.5339C82.7989 30.8448 82.6759 31.2363 82.7013 31.6326H82.7064Z" fill="white"/>
<path d="M87.2827 29.2239H88.452V29.8802C88.6283 29.6462 88.8567 29.4564 89.119 29.3255C89.3814 29.1946 89.6707 29.1262 89.964 29.1259C90.2449 29.1186 90.5228 29.1845 90.7704 29.3169C91.0063 29.454 91.1999 29.6532 91.3298 29.8927C91.5177 29.6572 91.7507 29.4615 92.0153 29.3169C92.2586 29.1899 92.5294 29.1243 92.804 29.1259C93.1179 29.116 93.4287 29.1907 93.7037 29.3421C93.9523 29.4872 94.1462 29.7098 94.2556 29.9757C94.3615 30.2999 94.4059 30.641 94.3866 30.9814V34.0439H93.109V31.2781C93.137 30.9635 93.0913 30.6467 92.9754 30.3528C92.9175 30.2628 92.8365 30.1899 92.7407 30.1417C92.645 30.0935 92.5381 30.0717 92.4311 30.0788C92.2503 30.0806 92.0744 30.1376 91.9271 30.2422C91.7644 30.3611 91.6449 30.5297 91.5869 30.7225C91.5017 31.0506 91.4661 31.3896 91.481 31.7282V34.0439H90.216V31.4013C90.2311 31.0971 90.2082 30.7922 90.148 30.4936C90.1122 30.3721 90.038 30.2653 89.9363 30.1894C89.8201 30.1175 89.6848 30.0824 89.5482 30.0888C89.3577 30.0862 89.1711 30.1424 89.014 30.2498C88.8531 30.3601 88.7342 30.5213 88.6763 30.7074C88.5918 31.0356 88.5569 31.3746 88.573 31.7131V34.0564H87.2953L87.2827 29.2239Z" fill="white"/>
<path d="M95.6265 29.2239H96.8184V29.9204C96.9779 29.6759 97.194 29.4733 97.4484 29.3295C97.7153 29.1774 98.0181 29.0993 98.3254 29.1032C98.5976 29.1005 98.867 29.1583 99.1141 29.2722C99.3612 29.3861 99.5799 29.5534 99.7542 29.762C100.171 30.2789 100.381 30.9324 100.341 31.5949C100.341 32.4012 100.144 33.0272 99.7492 33.4731C99.5753 33.6842 99.3562 33.8538 99.1081 33.9695C98.86 34.0852 98.5892 34.1441 98.3153 34.1419C98.0644 34.1455 97.8161 34.0913 97.5895 33.9835C97.3304 33.8448 97.099 33.6598 96.9066 33.4379V35.8667H95.6265V29.2239ZM96.8865 31.5522C96.853 31.977 96.9668 32.4005 97.209 32.7515C97.3012 32.873 97.4205 32.9715 97.5574 33.0391C97.6943 33.1068 97.845 33.1417 97.9978 33.1412C98.1406 33.1434 98.282 33.1122 98.4106 33.0502C98.5392 32.9882 98.6516 32.8971 98.7387 32.7842C98.9369 32.5512 99.036 32.1615 99.036 31.615C99.0664 31.2162 98.9598 30.8189 98.7336 30.4886C98.6443 30.3737 98.5296 30.2807 98.3985 30.2171C98.2674 30.1534 98.1234 30.1207 97.9776 30.1215C97.8291 30.1192 97.6819 30.1503 97.5471 30.2125C97.4123 30.2748 97.2933 30.3666 97.1989 30.4811C96.9723 30.7904 96.8633 31.1701 96.8915 31.5522H96.8865Z" fill="white"/>
<path d="M102.312 30.6948L101.15 30.4836C101.246 30.0711 101.484 29.7054 101.823 29.4502C102.252 29.1978 102.747 29.0803 103.244 29.1133C103.678 29.0891 104.112 29.1586 104.517 29.3169C104.762 29.4185 104.968 29.5945 105.107 29.8198C105.249 30.1835 105.307 30.5745 105.278 30.9638L105.263 32.4523C105.255 32.7653 105.276 33.0784 105.326 33.3876C105.374 33.6127 105.452 33.8306 105.555 34.0363H104.295C104.262 33.9508 104.222 33.8251 104.172 33.6592C104.16 33.6089 104.144 33.5593 104.126 33.5108C103.925 33.7117 103.687 33.8729 103.426 33.986C103.174 34.0922 102.903 34.1461 102.629 34.1444C102.2 34.1681 101.778 34.0238 101.453 33.7421C101.313 33.6116 101.202 33.4528 101.128 33.2764C101.054 33.1 101.019 32.9099 101.024 32.7188C101.02 32.4622 101.088 32.2097 101.221 31.9897C101.35 31.7723 101.54 31.5975 101.768 31.4868C102.091 31.3486 102.429 31.249 102.776 31.1901C103.198 31.1241 103.614 31.0197 104.018 30.8783V30.7501C104.027 30.6545 104.015 30.558 103.983 30.4674C103.952 30.3767 103.901 30.2939 103.834 30.2246C103.629 30.099 103.388 30.0442 103.149 30.0687C102.961 30.0578 102.774 30.1052 102.614 30.2045C102.463 30.3313 102.357 30.5032 102.312 30.6948ZM104.023 31.7282C103.767 31.8072 103.507 31.8726 103.244 31.9243C103.002 31.9609 102.767 32.0356 102.549 32.1456C102.472 32.193 102.408 32.2592 102.364 32.338C102.32 32.4167 102.297 32.5054 102.297 32.5956C102.296 32.6825 102.314 32.7684 102.349 32.8481C102.384 32.9277 102.434 32.9993 102.498 33.0582C102.565 33.1229 102.644 33.1735 102.731 33.2072C102.817 33.2409 102.91 33.2569 103.002 33.2544C103.241 33.2515 103.473 33.1721 103.663 33.0281C103.808 32.9241 103.915 32.7758 103.968 32.6057C104.01 32.4007 104.027 32.1912 104.018 31.9821L104.023 31.7282Z" fill="white"/>
<path d="M110.933 34.0439H109.655V31.5824C109.673 31.2449 109.645 30.9066 109.572 30.5766C109.525 30.4324 109.431 30.3078 109.305 30.2221C109.175 30.1348 109.021 30.09 108.864 30.0939C108.651 30.0904 108.441 30.1547 108.267 30.2774C108.095 30.3923 107.967 30.5615 107.904 30.7577C107.823 31.1213 107.79 31.4943 107.808 31.8665V34.0489H106.528V29.2239H107.718V29.9204C107.898 29.6664 108.136 29.4595 108.414 29.3172C108.691 29.175 108.998 29.1016 109.31 29.1032C109.576 29.1012 109.839 29.1525 110.084 29.2541C110.29 29.3374 110.472 29.4715 110.613 29.6438C110.733 29.8032 110.819 29.9855 110.865 30.1794C110.92 30.4617 110.944 30.7492 110.936 31.0367L110.933 34.0439Z" fill="white"/>
<path d="M111.636 29.2239H112.997L114.151 32.6459L115.28 29.2239H116.603L114.897 33.8628L114.582 34.6976C114.498 34.9229 114.391 35.1386 114.262 35.3412C114.165 35.4819 114.044 35.6045 113.904 35.7033C113.754 35.8019 113.589 35.875 113.415 35.9195C113.203 35.9723 112.984 35.9977 112.765 35.995C112.522 35.9954 112.279 35.9701 112.042 35.9195L111.926 34.9138C112.104 34.9516 112.285 34.9718 112.468 34.9742C112.59 34.9852 112.712 34.9683 112.827 34.9247C112.941 34.8811 113.044 34.812 113.128 34.7227C113.282 34.5258 113.394 34.2989 113.455 34.0564L111.636 29.2239Z" fill="white"/>
<path d="M63.8366 0.0326997C61.7428 -0.138458 59.6467 0.33576 57.8316 1.39129C56.0165 2.44682 54.5698 4.03279 53.6871 5.93493C52.8043 7.83708 52.528 9.96373 52.8955 12.0276C53.263 14.0914 54.2565 15.993 55.7418 17.4754C57.2272 18.9578 59.1328 19.9496 61.2012 20.3168C63.2696 20.684 65.4012 20.4089 67.3079 19.5286C69.2145 18.6484 70.8045 17.2054 71.8629 15.3947C72.9213 13.584 73.3971 11.4928 73.2262 9.40356C73.0262 6.98537 71.9728 4.71639 70.2534 3.00043C68.5341 1.28446 66.2602 0.232837 63.8366 0.0326997ZM63.6224 14.9778C62.6308 15.1069 61.6234 14.923 60.7419 14.4518C59.8603 13.9806 59.1488 13.2458 58.7071 12.3506C58.2654 11.4554 58.1158 10.4446 58.2792 9.46017C58.4426 8.47576 58.9109 7.5671 59.6182 6.86174C60.3256 6.15639 61.2366 5.68974 62.2234 5.5273C63.2101 5.36485 64.2231 5.51477 65.1201 5.956C66.017 6.39723 66.7531 7.10764 67.2248 7.9875C67.6965 8.86736 67.8802 9.87251 67.7502 10.8619C67.613 11.9059 67.1339 12.8755 66.3874 13.6198C65.641 14.3641 64.6689 14.8415 63.6224 14.9778Z" fill="white"/>
<path d="M102.408 7.98547H88.5479V12.4911H102.408V7.98547Z" fill="white"/>
<path d="M102.408 15.6642H88.5479V20.1698H102.408V15.6642Z" fill="white"/>
<path d="M77.9209 20.1673H84.2839V4.81239H102.43V0.306732H84.2839H77.9209H73.9065V4.81239H77.9209V20.1673Z" fill="white"/>
<path d="M118.397 10.2534L118.46 10.1603L125.199 0.306732H118.611L112.251 9.60971V0.306732H105.888V20.1673H112.251V10.8669L118.611 20.1673H126L118.397 10.2534Z" fill="white"/>
<path d="M45.3549 20.1673L52.9804 0.306732H46.6602L42.2049 13.9972L37.752 0.306732H31.4319L39.0549 20.1673H45.3549Z" fill="white"/>
<path d="M29.6705 0.306732H23.3101V20.1673H29.6705V0.306732Z" fill="white"/>
<path d="M21.546 0.306732H15.2284L10.773 13.9972L6.31764 0.306732H0L7.623 20.1673H13.923L21.546 0.306732Z" fill="white"/>
</g>
<defs>
<clipPath id="clip0_26_7212">
<rect width="126" height="36" fill="white"/>
</clipPath>
</defs>
</svg>
